<svg width="230" height="230" viewBox="0 0 230 230" fill="none" xmlns="http://www.w3.org/2000/svg">
<path d="M155.902 202.466L163.692 201.599C165.231 201.599 166 202.369 166 203.91C166 206.607 164.173 208.629 160.518 209.978C156.864 211.326 152.728 212 148.112 212C139.457 212 132.148 208.533 126.185 201.599C120.415 194.665 112.336 181.856 101.95 163.172C99.4491 159.127 98.1989 156.045 98.1989 153.927C98.1989 151.037 102.238 147.667 110.317 143.814C123.396 137.073 129.936 128.598 129.936 118.389C129.936 115.5 128.878 113.092 126.762 111.166C124.838 109.047 122.242 107.988 118.972 107.988C114.356 107.988 108.874 113.478 102.527 124.457C96.1793 135.243 91.8515 145.452 89.5434 155.082C87.4276 164.52 86.3697 174.729 86.3697 185.708C86.3697 191.101 84.831 193.798 81.7535 193.798C77.3296 193.798 73.098 193.22 69.0588 192.064C65.0196 190.716 63 189.079 63 187.153C63 185.034 63.7694 175.885 65.3081 159.705C66.8469 143.333 67.7124 131.583 67.9048 124.457C68.6741 85.1632 70.9823 55.1153 74.8291 34.3129C75.4062 32.5793 78.0028 29.5938 82.619 25.3563C87.4276 21.1188 91.2745 19 94.1597 19C97.0448 19 98.3912 22.6597 98.1989 29.979C98.1989 37.1058 96.6601 52.515 93.5826 76.2066C90.5051 99.8982 88.5817 121.567 87.8123 141.214C91.2745 128.887 96.7563 117.234 104.258 106.254C111.951 95.2754 119.645 89.7859 127.339 89.7859C140.418 89.7859 146.958 96.1422 146.958 108.855C146.958 117.33 144.458 125.034 139.457 131.969C134.456 138.71 127.724 144.2 119.261 148.437C117.529 149.208 116.664 150.074 116.664 151.037C116.664 152 116.952 152.964 117.529 153.927C129.647 175.307 139.937 190.331 148.401 198.999C150.709 201.31 153.209 202.466 155.902 202.466Z" fill="#111C1B"/>
</svg>
